<svg xmlns="http://www.w3.org/2000/svg" version="1.1" xmlns:xlink="http://www.w3.org/1999/xlink" xmlns:svgjs="http://svgjs.dev/svgjs" width="2000" height="338" viewBox="0 0 2000 338"><g transform="matrix(1,0,0,1,-1.2121212121212466,0.9798419666373377)"><svg viewBox="0 0 396 67" data-background-color="#ffffff" preserveAspectRatio="xMidYMid meet" height="338" width="2000" xmlns="http://www.w3.org/2000/svg" xmlns:xlink="http://www.w3.org/1999/xlink"><g id="tight-bounds" transform="matrix(1,0,0,1,0.2400000000000091,-0.19422902888965154)"><svg viewBox="0 0 395.52 67.38845805777932" height="67.38845805777932" width="395.52"><g><svg viewBox="0 0 395.52 67.38845805777932" height="67.38845805777932" width="395.52"><g><svg viewBox="0 0 395.52 67.38845805777932" height="67.38845805777932" width="395.52"><g id="textblocktransform"><svg viewBox="0 0 395.52 67.38845805777932" height="67.38845805777932" width="395.52" id="textblock"><g><svg viewBox="0 0 395.52 67.38845805777932" height="67.38845805777932" width="395.52"><g transform="matrix(1,0,0,1,0,0)"><svg width="395.52" viewBox="1.73 -38.11 280.54999999999995 47.8" height="67.38845805777932" data-palette-color="#ab2f31"><path d="M13.09 0.44L13.09 0.44Q9.55 0.44 6.96-1.44L6.96-1.44Q4.39-3.32 3.06-6.48 1.73-9.64 1.73-13.45L1.73-13.45Q1.73-16.89 3.1-19.97L3.1-19.97Q4.47-23 6.97-24.83 9.47-26.66 12.89-26.66L12.89-26.66Q15.38-26.66 17.16-25.85 18.95-25.05 20.48-23.46L20.48-23.46 20.48-29.86 16.58-29.86 16.58-36.5 32.23-38.11 32.23-7.35 35.33-7.35 35.33 0 20.29 0 20.29-3.15Q19.09-1.54 17.24-0.57 15.38 0.39 13.09 0.44ZM16.99-6.69L16.99-6.69Q18.14-6.69 19.07-7.24 20-7.79 20.48-8.54L20.48-8.54 20.48-17.8Q19.92-18.46 18.98-18.98 18.04-19.51 16.99-19.51L16.99-19.51Q15.09-19.51 13.89-17.96 12.7-16.41 12.7-13.45L12.7-13.45Q12.7-10.45 13.79-8.57 14.89-6.69 16.99-6.69ZM49.48 0.44L49.48 0.44Q41.62 0.44 41.62-9.4L41.62-9.4 41.62-18.6 38.47-18.6 38.47-25.2 53.32-26.66 53.32-9.4Q53.32-8.45 54.03-7.65 54.73-6.86 55.69-6.86L55.69-6.86Q56.78-6.86 57.41-7.6 58.03-8.35 58.03-9.45L58.03-9.45 58.03-18.6 55.69-18.6 55.69-25.2 69.72-26.66 69.72-7.35 72.87-7.35 72.87 0 58.03 0 58.03-3.81Q56.74-1.81 54.58-0.68 52.41 0.44 49.48 0.44ZM88.57 0.44L88.57 0.44Q79.17 0.44 79.17-9.35L79.17-9.35 79.17-18.99 75.26-18.99 75.26-26.15 79.17-26.15 79.17-31.74 90.86-34.35 90.86-26.15 95.55-26.15 95.55-18.99 90.86-18.99 90.86-10.21Q90.86-9.11 91.69-8.37 92.52-7.64 93.77-7.64L93.77-7.64Q94.67-7.64 95.55-7.79L95.55-7.79 95.55-1Q92.33 0.44 88.57 0.44ZM120.65 1.49L124.41 1.49 124.41 9.2 107.51 9.2 107.51 1.49 112.47 1.49 113.81-0.76 102.41-18.6 99.31-18.6 99.31-26.15 117.62-26.15 117.62-18.6 115.2-18.6 119.26-11.11 122.97-18.6 120.31-18.6 120.31-26.15 133.95-26.15 133.95-18.6 131.32-18.6 120.65 1.49ZM151.26 0.44L151.26 0.44Q146.25 0.44 142.4-2.2L142.4-2.2 141.59 0 137.05 0 137.05-9.64 142.49-9.64Q142.81-7.79 144.23-6.32 145.64-4.86 147.5-4.86L147.5-4.86Q148.21-4.86 148.73-5.25 149.26-5.64 149.26-6.54L149.26-6.54Q149.26-7.45 148.23-8.18L148.23-8.18Q147.18-8.94 145.11-9.91L145.11-9.91Q142.59-11.16 141.01-12.18L141.01-12.18Q139.39-13.21 138.22-14.88 137.05-16.55 137.05-18.9L137.05-18.9Q137.05-21.31 138.64-23.1L138.64-23.1Q140.22-24.85 142.81-25.76 145.4-26.66 148.45-26.66L148.45-26.66Q152.43-26.66 155.85-24.56L155.85-24.56 156.46-26.15 160.51-26.15 160.51-18.36 155.8-18.36Q155.19-19.95 154.04-20.85 152.9-21.75 151.36-21.75L151.36-21.75Q149.55-21.75 149.55-20.61L149.55-20.61Q149.57-19.82 150.5-19.26L150.5-19.26Q151.43-18.73 153.51-17.8L153.51-17.8Q154.8-17.26 155.87-16.72 156.95-16.19 157.8-15.7L157.8-15.7Q159.51-14.7 160.78-12.88 162.05-11.06 162.05-8.35L162.05-8.35Q162.05-5.47 160.56-3.52L160.56-3.52Q159.07-1.54 156.61-0.55 154.14 0.44 151.26 0.44ZM178.53 0.44L178.53 0.44Q169.13 0.44 169.13-9.35L169.13-9.35 169.13-18.99 165.22-18.99 165.22-26.15 169.13-26.15 169.13-31.74 180.82-34.35 180.82-26.15 185.51-26.15 185.51-18.99 180.82-18.99 180.82-10.21Q180.82-9.11 181.65-8.37 182.48-7.64 183.73-7.64L183.73-7.64Q184.63-7.64 185.51-7.79L185.51-7.79 185.51-1Q182.29 0.44 178.53 0.44ZM204.11 0.44L204.11 0.44Q199.57 0.44 196.23-1.25L196.23-1.25Q192.86-2.91 191.06-6.01 189.27-9.11 189.27-13.26L189.27-13.26Q189.27-17.36 191.03-20.39L191.03-20.39Q192.76-23.39 195.93-25.02 199.11-26.66 203.38-26.66L203.38-26.66Q207.31-26.66 210.31-25.12L210.31-25.12Q213.32-23.56 214.96-20.7 216.61-17.85 216.61-14.04L216.61-14.04Q216.61-12.72 216.22-11.55L216.22-11.55 201.01-11.55Q201.01-9.25 202.74-7.87 204.48-6.49 206.92-6.49L206.92-6.49Q208.77-6.49 211-7.14 213.22-7.79 215.46-9.16L215.46-9.16 215.88-9.01 215.88-2.44Q213.36-1 210.71-0.28 208.07 0.44 204.11 0.44ZM201.01-16.55L201.01-16.55 201.01-15.84 207.26-15.84 207.26-16.36Q207.26-18.09 206.47-19.35 205.67-20.61 204.11-20.61L204.11-20.61Q202.82-20.61 201.91-19.32 201.01-18.04 201.01-16.55ZM238.39 2.34L238.39 9.69 220.39 9.69 220.39 2.29 223.54 2.29 223.54-18.6 220.39-18.6 220.39-25.15 235.24-26.66 235.24-22.51Q236.48-24.24 238.46-25.45 240.44-26.66 243.1-26.66L243.1-26.66Q246.59-26.66 249.05-24.85L249.05-24.85Q251.52-23.05 252.75-20 253.99-16.94 253.99-13.21L253.99-13.21Q253.99-9.5 252.77-6.35L252.77-6.35Q251.55-3.25 249.07-1.4 246.59 0.44 243.05 0.44L243.05 0.44Q240.58 0.44 238.57-0.52 236.55-1.49 235.24-2.91L235.24-2.91 235.24 2.34 238.39 2.34ZM238.75-6.69L238.75-6.69Q240.95-6.69 242-8.45 243.05-10.21 243.05-13.06L243.05-13.06Q243.05-15.99 241.9-17.75 240.75-19.51 238.9-19.51L238.9-19.51Q237.65-19.51 236.65-18.88 235.65-18.26 235.24-17.26L235.24-17.26 235.24-8.79Q236.34-6.69 238.75-6.69ZM271.49 0.44L271.49 0.44Q266.48 0.44 262.63-2.2L262.63-2.2 261.82 0 257.28 0 257.28-9.64 262.72-9.64Q263.04-7.79 264.46-6.32 265.87-4.86 267.73-4.86L267.73-4.86Q268.44-4.86 268.96-5.25 269.49-5.64 269.49-6.54L269.49-6.54Q269.49-7.45 268.46-8.18L268.46-8.18Q267.41-8.94 265.34-9.91L265.34-9.91Q262.82-11.16 261.23-12.18L261.23-12.18Q259.62-13.21 258.45-14.88 257.28-16.55 257.28-18.9L257.28-18.9Q257.28-21.31 258.87-23.1L258.87-23.1Q260.45-24.85 263.04-25.76 265.63-26.66 268.68-26.66L268.68-26.66Q272.66-26.66 276.08-24.56L276.08-24.56 276.69-26.15 280.74-26.15 280.74-18.36 276.03-18.36Q275.42-19.95 274.27-20.85 273.12-21.75 271.59-21.75L271.59-21.75Q269.78-21.75 269.78-20.61L269.78-20.61Q269.8-19.82 270.73-19.26L270.73-19.26Q271.66-18.73 273.73-17.8L273.73-17.8Q275.03-17.26 276.1-16.72 277.18-16.19 278.03-15.7L278.03-15.7Q279.74-14.7 281.01-12.88 282.28-11.06 282.28-8.35L282.28-8.35Q282.28-5.47 280.79-3.52L280.79-3.52Q279.3-1.54 276.84-0.55 274.37 0.44 271.49 0.44Z" opacity="1" transform="matrix(1,0,0,1,0,0)" fill="#ab2f31" class="wordmark-text-0" data-fill-palette-color="primary" id="text-0"></path></svg></g></svg></g></svg></g></svg></g><g></g></svg></g><defs></defs></svg><rect width="395.52" height="67.38845805777932" fill="none" stroke="none" visibility="hidden"></rect></g></svg></g></svg>