
<svg version="1.0" xmlns="http://www.w3.org/2000/svg"
 width="845.000000pt" height="1024.000000pt" viewBox="0 0 845.000000 1024.000000"
 preserveAspectRatio="xMidYMid meet">

<g transform="translate(0.000000,1024.000000) scale(0.100000,-0.100000)"
fill="#000000" stroke="none">
<path d="M1 9148 c1 -601 4 -1082 6 -1069 3 13 13 26 24 28 19 5 27 43 9 43
-5 0 -10 9 -10 21 0 18 4 20 25 15 27 -7 30 1 26 55 -1 19 4 28 18 32 16 4 19
11 14 46 -6 40 -5 41 24 41 26 0 30 3 30 30 0 16 7 38 16 48 10 10 17 32 17
49 0 23 4 30 18 29 13 -1 17 7 17 34 -1 22 5 40 16 47 10 7 20 31 24 53 4 22
11 40 17 40 15 0 47 43 48 63 0 10 7 20 15 23 8 4 15 15 15 25 0 10 7 19 15
19 8 0 16 6 16 13 1 6 3 23 4 36 1 13 6 26 11 30 5 3 10 22 12 41 2 19 8 39
13 45 5 5 9 17 9 28 0 14 5 17 20 12 18 -6 20 -2 20 39 0 34 4 46 15 46 8 0
19 9 25 20 6 11 18 20 26 20 8 0 12 4 9 10 -3 5 8 38 25 72 16 35 30 72 30 82
0 16 3 17 12 8 9 -9 16 -6 30 16 10 15 18 35 18 45 0 9 4 17 9 17 5 0 11 10
13 23 2 14 11 23 26 25 24 4 28 22 12 53 -9 16 -7 19 15 19 22 0 25 4 25 39 0
22 5 43 10 46 6 3 10 15 10 26 0 10 5 19 10 19 6 0 10 7 10 15 0 9 10 15 26
15 27 0 27 -1 7 48 -3 7 3 12 17 12 15 0 20 5 17 14 -3 8 1 20 9 26 8 7 14 19
14 26 0 8 5 14 10 14 6 0 10 7 10 14 0 8 11 27 25 42 14 15 25 36 25 48 0 30
12 43 40 47 21 3 24 9 22 32 -3 22 1 27 17 27 18 0 21 6 21 39 0 30 4 40 20
44 17 4 20 14 20 66 l0 61 -560 0 -560 0 1 -1092z m1066 1010 c-3 -7 -5 -2 -5
12 0 14 2 19 5 13 2 -7 2 -19 0 -25z m-210 -370 c-3 -8 -6 -5 -6 6 -1 11 2 17
5 13 3 -3 4 -12 1 -19z"/>
<path d="M1110 10015 c0 -8 7 -15 15 -15 8 0 15 7 15 15 0 8 -7 15 -15 15 -8
0 -15 -7 -15 -15z"/>
<path d="M987 9894 c-9 -9 4 -35 14 -28 5 3 9 12 9 20 0 14 -12 19 -23 8z"/>
<path d="M945 9769 c-8 -24 -1 -34 19 -26 9 4 12 14 9 26 -7 27 -20 27 -28 0z"/>
<path d="M820 9510 c0 -11 5 -20 10 -20 6 0 10 9 10 20 0 11 -4 20 -10 20 -5
0 -10 -9 -10 -20z"/>
<path d="M697 9353 c-12 -11 -8 -23 8 -23 8 0 15 7 15 15 0 16 -12 20 -23 8z"/>
<path d="M665 9280 c-3 -5 -1 -10 4 -10 6 0 11 5 11 10 0 6 -2 10 -4 10 -3 0
-8 -4 -11 -10z"/>
<path d="M490 8919 c0 -11 5 -17 10 -14 6 3 10 13 10 21 0 8 -4 14 -10 14 -5
0 -10 -9 -10 -21z"/>
<path d="M430 8845 c0 -16 6 -25 15 -25 9 0 15 9 15 25 0 16 -6 25 -15 25 -9
0 -15 -9 -15 -25z"/>
<path d="M530 8850 c0 -5 5 -10 11 -10 5 0 7 5 4 10 -3 6 -8 10 -11 10 -2 0
-4 -4 -4 -10z"/>
<path d="M375 8720 c-3 -5 1 -10 9 -10 9 0 16 5 16 10 0 6 -4 10 -9 10 -6 0
-13 -4 -16 -10z"/>
<path d="M320 8590 c0 -16 5 -30 10 -30 6 0 10 14 10 30 0 17 -4 30 -10 30 -5
0 -10 -13 -10 -30z"/>
<path d="M230 8460 c0 -5 7 -10 15 -10 8 0 15 5 15 10 0 6 -7 10 -15 10 -8 0
-15 -4 -15 -10z"/>
<path d="M80 8140 c0 -5 5 -10 10 -10 6 0 10 5 10 10 0 6 -4 10 -10 10 -5 0
-10 -4 -10 -10z"/>
<path d="M20 8004 c0 -31 23 -28 28 4 2 15 -2 22 -12 22 -11 0 -16 -9 -16 -26z"/>
<path d="M4950 7629 c0 -5 -5 -7 -12 -3 -7 4 -2 -7 11 -24 12 -18 27 -32 32
-32 6 0 7 -5 3 -12 -4 -6 -3 -8 2 -5 11 7 11 44 0 70 -9 18 -36 24 -36 6z"/>
<path d="M3430 7163 c0 -5 12 -15 28 -24 129 -76 184 -115 225 -158 27 -28 46
-55 43 -60 -3 -5 0 -11 8 -14 7 -3 23 -25 35 -49 11 -23 21 -37 21 -30 0 29
-53 114 -103 165 -66 68 -257 194 -257 170z"/>
<path d="M5254 6730 c-16 -23 -39 -53 -51 -65 -13 -12 -23 -27 -23 -33 0 -6
-8 -16 -17 -21 -10 -5 -40 -32 -68 -60 -27 -28 -53 -51 -58 -51 -4 0 -24 -12
-46 -28 -21 -15 -58 -36 -82 -46 -24 -10 -56 -25 -71 -33 -16 -8 -28 -11 -28
-7 0 3 -8 0 -17 -7 -13 -11 -15 -11 -9 -1 6 11 4 11 -10 3 -27 -14 -55 -24
-84 -28 -14 -2 -38 -9 -53 -15 -16 -6 -47 -12 -70 -13 -23 -2 -76 -7 -117 -13
-82 -12 -190 -20 -375 -28 -97 -5 -118 -3 -107 7 6 7 12 20 12 28 0 11 -7 8
-23 -10 -12 -15 -36 -35 -54 -45 -18 -10 -30 -22 -27 -26 3 -5 11 -4 18 2 8 6
148 12 387 15 206 3 399 7 429 9 l55 4 -35 -15 c-64 -26 -192 -52 -319 -64
-127 -11 -150 -11 -452 12 l-165 13 -79 -39 c-43 -22 -99 -57 -124 -78 -57
-50 -127 -134 -141 -172 -11 -29 -11 -29 25 8 32 33 51 42 78 38 4 0 7 4 7 10
0 5 6 7 13 3 9 -6 9 -5 -1 8 -10 13 -8 15 15 11 20 -3 24 -2 14 5 -9 7 -10 12
-2 16 6 4 11 4 11 0 0 -4 8 0 18 9 10 10 22 14 26 10 4 -4 12 -1 17 7 9 13 10
12 5 -2 -3 -10 0 -20 7 -24 7 -4 9 -4 5 0 -11 13 26 41 54 41 22 0 24 -3 15
-14 -9 -11 -9 -13 0 -8 6 4 14 3 18 -3 8 -13 25 -13 25 1 0 5 -4 7 -10 4 -5
-3 -10 -1 -10 4 0 6 3 12 8 12 33 6 51 5 46 -3 -3 -4 -10 -6 -15 -3 -5 4 -9
-1 -9 -9 0 -9 7 -16 16 -16 8 0 12 -5 9 -11 -4 -6 -14 -8 -24 -4 -13 5 -13 4
-4 -6 10 -10 16 -9 31 4 12 11 22 13 28 7 7 -7 11 -6 11 4 0 8 -4 13 -9 10 -4
-3 -8 0 -8 6 0 6 -6 8 -12 4 -7 -4 -2 5 11 19 14 15 42 35 62 44 21 9 36 20
33 24 -9 15 14 18 26 4 9 -10 9 -15 1 -15 -6 0 -11 -4 -11 -10 0 -5 5 -9 12
-7 18 3 37 21 31 30 -2 4 6 7 17 7 15 0 20 -5 17 -14 -5 -13 -1 -13 32 -1 51
18 76 3 32 -19 -17 -9 -31 -18 -31 -19 0 -6 59 -1 66 5 4 4 13 3 21 -3 7 -6
13 -8 13 -4 0 4 -8 14 -17 21 -17 12 -16 13 4 11 12 -1 20 -3 18 -6 -8 -7 16
-31 25 -26 5 3 12 0 16 -6 5 -8 3 -9 -6 -4 -9 5 -11 4 -6 -4 5 -8 12 -9 20 -2
12 10 86 11 86 0 0 -3 -6 -11 -12 -19 -11 -12 -10 -12 3 -2 9 6 20 8 24 4 5
-4 5 -2 2 4 -4 7 -1 14 7 17 21 8 27 -3 14 -27 -10 -19 -10 -20 5 -7 10 7 17
11 17 7 0 -4 10 0 23 8 12 7 32 13 45 11 13 -1 26 3 29 8 4 6 1 7 -7 2 -8 -5
-11 -4 -6 3 4 6 13 9 22 5 12 -4 12 -8 2 -22 -7 -9 0 -5 15 8 30 27 37 41 10
20 -16 -13 -17 -12 -5 3 14 17 47 14 36 -4 -4 -6 3 -5 15 1 11 7 21 16 21 22
0 6 5 7 10 4 6 -3 10 -1 10 5 0 6 4 9 9 5 5 -3 12 -1 16 5 4 6 10 8 15 5 4 -3
10 2 14 10 3 8 17 15 31 15 15 0 24 4 20 10 -4 6 11 18 32 26 21 9 40 20 43
24 3 4 28 19 55 34 28 16 58 35 68 44 9 8 17 11 17 7 0 -5 6 0 14 11 8 10 18
16 21 12 4 -4 24 8 43 27 26 24 39 30 44 22 5 -8 8 -7 8 4 0 20 34 52 44 42 4
-5 6 -1 4 7 -2 10 4 14 17 13 11 -1 14 0 8 3 -9 4 3 25 34 62 49 60 138 232
131 253 -2 7 -17 -7 -34 -31z m-850 -642 c-5 -8 -2 -9 9 -5 24 9 21 2 -7 -16
-16 -11 -24 -12 -22 -4 2 15 15 37 22 37 3 0 2 -5 -2 -12z"/>
<path d="M3370 6385 c0 -2 9 -19 19 -36 18 -30 19 -30 26 -10 7 24 -9 51 -31
51 -8 0 -14 -2 -14 -5z"/>
<path d="M5435 6380 c-3 -6 1 -7 9 -4 18 7 21 14 7 14 -6 0 -13 -4 -16 -10z"/>
<path d="M5276 6363 c-6 -14 -5 -15 5 -6 7 7 10 15 7 18 -3 3 -9 -2 -12 -12z"/>
<path d="M2692 6363 c-7 -2 -17 -14 -23 -26 -11 -20 -10 -20 17 3 16 14 31 26
33 28 7 4 -14 1 -27 -5z"/>
<path d="M5175 6361 c-3 -5 -2 -12 3 -15 5 -3 9 1 9 9 0 17 -3 19 -12 6z"/>
<path d="M5223 6336 c0 -9 4 -16 9 -16 5 0 6 -5 3 -11 -4 -6 -10 -8 -13 -5 -3
3 -14 -2 -24 -11 -18 -16 -18 -16 -12 3 7 16 5 17 -8 7 -8 -7 -17 -11 -20 -8
-2 3 -5 -1 -5 -8 0 -18 46 -15 57 3 9 13 10 13 10 0 1 -12 3 -12 14 3 19 25
27 21 14 -8 -8 -18 -14 -22 -24 -15 -6 6 -14 7 -16 3 -1 -4 -16 -19 -32 -33
l-29 -25 19 30 c14 21 15 27 4 20 -8 -5 -19 -10 -25 -10 -12 0 -14 -26 -3 -42
6 -7 4 -14 -3 -19 -8 -4 -9 -3 -5 4 15 24 -14 11 -50 -23 -20 -19 -42 -35 -48
-35 -6 0 -5 4 3 9 8 5 16 17 17 25 1 9 -2 14 -7 10 -5 -3 -7 -9 -4 -14 3 -4
-5 -10 -16 -13 -12 -3 -18 -10 -15 -16 9 -13 -11 -24 -31 -17 -13 5 -13 9 -2
24 13 16 12 16 -7 -1 -11 -9 -24 -14 -28 -10 -4 5 -7 4 -6 -2 4 -20 -1 -30 -9
-17 -6 10 -10 10 -21 -3 -11 -13 -10 -15 6 -9 15 6 17 4 7 -6 -7 -8 -22 -15
-33 -17 -15 -2 -18 1 -13 15 3 9 3 14 -1 11 -12 -11 -15 -48 -4 -55 7 -4 8 -2
4 4 -4 7 -2 12 3 12 19 0 12 -16 -16 -41 -25 -22 -26 -22 -9 -1 11 12 15 22
10 22 -12 -1 -50 -30 -39 -30 5 0 -2 -11 -15 -25 -17 -18 -27 -22 -36 -14 -8
7 -14 7 -19 -1 -3 -6 -10 -8 -15 -5 -5 3 -11 1 -14 -4 -7 -11 13 -9 34 4 12 7
13 6 3 -6 -11 -13 -13 -20 -13 -35 0 -4 -6 -1 -14 5 -11 9 -14 8 -12 -5 0 -11
-8 -20 -24 -24 -20 -5 -10 -10 50 -27 41 -12 92 -24 113 -28 l39 -6 -64 -66
c-35 -36 -69 -71 -76 -79 -18 -19 -25 -18 -20 4 3 10 -1 24 -9 31 -10 9 -13
27 -10 57 2 24 0 44 -6 44 -5 0 -6 -8 -2 -17 5 -15 4 -16 -6 -5 -18 17 -43 15
-61 -5 -15 -17 -38 -90 -41 -125 -1 -14 -9 -16 -42 -12 -165 19 -330 24 -739
24 -412 0 -467 2 -462 15 3 8 9 23 12 33 16 46 -18 -19 -42 -81 -29 -76 -28
-99 2 -37 10 22 26 42 34 45 23 10 636 2 815 -9 104 -7 197 -25 189 -38 -3 -4
9 -8 27 -8 l31 0 -22 -18 c-25 -20 -20 -42 8 -43 15 0 14 -1 -1 -8 -13 -5 13
-13 77 -25 69 -13 94 -22 88 -30 -5 -6 -41 -50 -80 -99 -39 -48 -75 -94 -80
-103 -7 -13 -17 -14 -68 -5 -145 27 -396 43 -757 48 l-378 5 6 22 c2 11 -7 -3
-20 -33 -26 -54 -30 -82 -6 -37 10 17 25 26 55 30 46 7 416 -1 516 -11 36 -3
80 -6 98 -7 17 0 32 -3 32 -6 0 -3 30 -6 66 -7 43 -1 70 -6 75 -15 6 -8 9 -9
9 -2 0 13 65 3 78 -12 4 -4 0 -5 -8 -2 -11 4 -16 0 -16 -13 0 -14 5 -17 18
-13 10 3 18 3 18 0 0 -3 -15 -10 -32 -15 -25 -7 -27 -9 -11 -10 12 -1 24 -5
27 -10 4 -5 -4 -7 -16 -3 -16 4 -19 2 -13 -8 6 -10 -1 -12 -36 -7 -74 10 -12
-9 108 -34 l111 -23 -36 -45 c-96 -119 -146 -176 -156 -173 -6 2 -51 8 -101
13 -49 5 -144 16 -210 24 -156 18 -383 33 -565 37 -80 2 -147 6 -150 10 -4 4
-19 -18 -34 -49 -18 -36 -22 -52 -12 -44 9 8 16 19 16 26 0 6 9 20 20 30 18
16 32 17 132 11 62 -3 127 -9 143 -12 17 -3 44 -7 60 -9 17 -1 41 -7 55 -12
14 -5 40 -9 58 -8 17 0 32 -3 32 -7 0 -4 11 -8 25 -8 14 0 25 -4 25 -9 0 -5
13 -8 30 -7 25 2 27 0 17 -13 -10 -12 -9 -13 12 -2 15 8 21 9 17 2 -4 -6 -2
-11 3 -11 6 0 11 5 11 10 0 6 5 10 10 10 12 0 9 -22 -5 -33 -6 -5 -2 -6 9 -3
11 4 23 1 27 -6 6 -9 11 -9 23 2 14 11 16 10 9 -5 -5 -14 -3 -17 10 -12 20 7
21 3 6 -24 -7 -14 -16 -18 -31 -13 -18 5 -19 4 -8 -8 11 -11 19 -12 36 -4 12
6 22 13 22 16 -2 21 4 30 20 29 10 0 12 -3 5 -6 -21 -8 -15 -26 7 -20 11 3 18
2 15 -3 -2 -4 -18 -10 -34 -13 -18 -4 -32 -14 -36 -27 -3 -11 -13 -20 -21 -20
-8 0 -14 -5 -14 -11 0 -5 5 -7 12 -3 6 4 30 9 52 10 25 2 35 -1 26 -6 -8 -5
-18 -6 -22 -4 -12 8 -10 -20 3 -33 14 -14 -21 -27 -53 -19 -13 3 -17 3 -10 0
6 -3 10 -9 7 -13 -2 -5 15 -6 38 -5 37 3 39 2 20 -8 -13 -6 -23 -18 -22 -27 0
-10 2 -12 6 -3 2 6 9 12 15 12 6 0 4 -8 -6 -19 -15 -16 -15 -19 -1 -31 11 -9
13 -16 6 -23 -7 -7 -7 -15 2 -26 10 -12 9 -14 -3 -9 -10 4 -15 -2 -16 -18 -1
-13 1 -22 5 -19 4 2 8 -2 8 -10 0 -8 -3 -14 -6 -13 -18 2 -31 -3 -31 -12 0 -5
8 -7 18 -3 13 5 11 -1 -8 -22 -14 -16 -18 -25 -10 -20 12 7 13 6 2 -6 -7 -8
-18 -14 -25 -14 -7 0 -13 -6 -13 -12 -3 -26 -5 -28 -15 -13 -8 11 -9 9 -4 -10
4 -14 8 -27 9 -30 0 -3 -3 -5 -9 -5 -5 0 -9 4 -7 8 1 5 -2 5 -8 2 -6 -4 -9
-10 -6 -13 3 -3 -2 -14 -11 -25 -10 -11 -13 -17 -6 -14 6 4 13 2 15 -5 2 -6
33 28 69 76 157 216 245 330 256 333 8 3 11 -5 8 -26 -3 -27 -1 -30 15 -21 10
5 20 20 24 33 6 27 68 95 114 126 26 19 40 21 75 16 44 -7 107 -47 107 -68 0
-7 7 -22 15 -34 14 -20 16 -21 48 -6 17 9 36 22 40 30 4 7 15 13 23 13 17 0
94 75 94 92 0 6 11 19 24 29 13 10 37 47 53 82 17 34 36 69 44 77 8 8 20 35
27 60 28 96 67 155 93 139 23 -15 71 -10 140 15 98 34 153 76 182 138 30 64
52 152 42 176 -5 14 -13 10 -47 -28 -22 -25 -51 -61 -63 -80 -31 -47 -96 -108
-176 -163 l-67 -45 -6 45 c-9 66 -7 103 4 103 18 0 11 20 -7 20 -55 1 -80 75
-48 136 8 16 15 46 15 67 0 69 96 179 365 417 226 200 250 224 239 242 -4 7
-3 10 1 5 13 -11 44 23 38 41 -4 9 -2 13 4 9 6 -4 17 1 24 11 12 15 12 16 -2
5 -9 -7 -19 -10 -23 -6 -13 14 -56 10 -70 -6 -14 -15 -16 -21 -16 -37 0 -4 -7
-1 -15 6 -14 11 -14 15 2 34 l18 21 -24 -20 c-20 -16 -23 -17 -18 -3 6 17 -8
19 -31 4 -8 -5 -18 -2 -26 9 -11 16 -13 16 -13 1z m87 -59 c0 -3 -9 -7 -20
-10 -11 -3 -18 -1 -14 4 3 5 1 9 -5 9 -5 0 -11 -3 -14 -7 -2 -5 -2 -1 1 7 3
13 8 33 11 49 1 5 41 -46 41 -52z m65 24 c3 -18 1 -20 -16 -10 -16 8 -18 13
-8 25 14 17 18 14 24 -15z m29 17 c-3 -4 -9 -8 -15 -8 -5 0 -9 4 -9 8 0 5 7 9
15 9 8 0 12 -4 9 -9z m6 -22 c0 -3 -4 -8 -10 -11 -5 -3 -10 -1 -10 4 0 6 5 11
10 11 6 0 10 -2 10 -4z m-104 -48 c4 -6 3 -8 -3 -5 -6 4 -16 0 -23 -8 -13 -16
-30 -11 -30 8 0 8 3 8 9 -1 6 -10 10 -10 21 3 15 18 17 18 26 3z m-333 -144
c-3 -8 -12 -13 -20 -9 -11 3 -13 1 -10 -10 4 -8 1 -17 -5 -21 -7 -4 -8 -3 -4
4 4 7 3 12 -3 12 -5 0 -11 -6 -14 -12 -3 -10 -8 -10 -18 1 -8 8 -9 11 -3 8 6
-4 24 7 39 23 28 30 49 32 38 4z m-143 -118 c0 -2 -8 -10 -17 -17 -16 -13 -17
-12 -4 4 13 16 21 21 21 13z m-418 -408 c-7 -7 -12 -8 -12 -2 0 14 12 26 19
19 2 -3 -1 -11 -7 -17z m-599 -811 c7 3 9 2 5 -2 -5 -5 -20 -10 -35 -11 -27
-3 -27 -2 -8 12 12 9 21 11 23 4 2 -5 9 -7 15 -3z m12 -57 c-3 -5 -11 -10 -16
-10 -6 0 -7 5 -4 10 3 6 11 10 16 10 6 0 7 -4 4 -10z m-99 -368 c-17 -16 -18
-16 -5 5 7 12 15 20 18 17 3 -2 -3 -12 -13 -22z"/>
<path d="M5270 6296 c0 -2 7 -7 16 -10 8 -3 12 -2 9 4 -6 10 -25 14 -25 6z"/>
<path d="M5133 6315 c0 -8 4 -12 9 -9 5 3 6 10 3 15 -9 13 -12 11 -12 -6z"/>
<path d="M3367 6284 c-3 -4 -41 -9 -83 -13 -82 -6 -102 -20 -59 -39 56 -26
120 -8 145 39 11 19 9 25 -3 13z"/>
<path d="M5083 6258 c-2 -5 1 -7 9 -6 7 2 12 -3 10 -10 -1 -8 2 -11 8 -7 6 3
8 10 5 15 -3 4 1 10 7 13 7 3 3 4 -10 4 -13 -1 -26 -5 -29 -9z"/>
<path d="M5045 6241 c-3 -5 -1 -12 5 -16 6 -4 7 -12 3 -18 -3 -7 3 -3 15 7 25
21 31 36 7 16 -14 -11 -19 -7 -16 13 1 10 -7 9 -14 -2z"/>
<path d="M2734 6209 c-34 -43 -70 -174 -54 -199 14 -22 75 147 68 190 -2 19
-5 21 -14 9z"/>
<path d="M4949 6188 c-5 -18 -6 -38 -1 -34 7 8 12 36 6 36 -2 0 -4 -1 -5 -2z"/>
<path d="M4987 6183 c-12 -18 21 -23 35 -5 11 15 11 16 -4 4 -13 -10 -17 -10
-20 0 -3 8 -6 9 -11 1z"/>
<path d="M2664 6172 c-20 -13 -34 -50 -34 -89 l0 -38 30 63 c17 35 30 66 30
68 0 6 -14 4 -26 -4z"/>
<path d="M4909 6178 c-5 -18 -6 -38 -1 -34 7 8 12 36 6 36 -2 0 -4 -1 -5 -2z"/>
<path d="M3571 6139 c-13 -11 -22 -22 -19 -24 2 -3 15 6 28 20 28 30 24 32 -9
4z"/>
<path d="M3488 6053 c-40 -52 -70 -96 -56 -83 10 9 94 115 102 128 18 30 -5 7
-46 -45z"/>
<path d="M3894 6082 c-9 -5 -8 -10 1 -19 11 -10 13 -9 12 7 -1 11 -1 20 -2 20
0 0 -5 -4 -11 -8z"/>
<path d="M3103 6055 c-21 -40 -24 -75 -8 -75 8 0 15 -4 15 -10 0 -17 59 -70
78 -70 10 0 29 11 41 24 l23 25 -39 10 c-45 12 -81 46 -92 87 -7 27 -8 28 -18
9z"/>
<path d="M4253 6051 c0 -11 5 -18 9 -15 4 3 5 11 1 19 -7 21 -12 19 -10 -4z"/>
<path d="M3715 6051 c-6 -10 33 -36 42 -28 2 3 -5 8 -16 12 -12 3 -19 11 -16
16 4 5 4 9 1 9 -3 0 -7 -4 -11 -9z"/>
<path d="M3926 6048 c3 -5 10 -6 15 -3 13 9 11 12 -6 12 -8 0 -12 -4 -9 -9z"/>
<path d="M3282 6036 c3 -4 0 -23 -8 -42 -14 -34 -8 -44 14 -22 16 16 15 55 0
64 -7 4 -10 4 -6 0z"/>
<path d="M2616 6015 c-9 -26 -7 -32 5 -12 6 10 9 21 6 23 -2 3 -7 -2 -11 -11z"/>
<path d="M4800 6012 c-8 -4 -16 -14 -18 -22 -3 -11 2 -10 17 4 28 26 29 30 1
18z"/>
<path d="M5944 5875 c-8 -13 -37 -78 -64 -143 -89 -220 -177 -337 -375 -495
-180 -145 -216 -180 -303 -297 -111 -148 -141 -181 -231 -252 -86 -69 -192
-124 -311 -163 -113 -36 -182 -70 -230 -115 -36 -33 -40 -42 -40 -84 0 -26 7
-63 15 -83 31 -74 13 -170 -60 -313 -73 -145 -177 -260 -335 -371 -75 -53 -87
-65 -77 -78 10 -12 9 -13 -3 -6 -12 7 -13 6 -3 -7 7 -8 9 -19 5 -23 -4 -5 -1
-5 6 -1 6 4 12 4 13 -1 5 -47 16 -74 45 -115 53 -72 185 -190 321 -287 l122
-88 -147 -17 c-536 -63 -768 -136 -748 -236 3 -17 13 -38 21 -46 21 -21 19
-31 -8 -49 -61 -39 -356 -80 -1202 -165 -395 -40 -697 -100 -974 -195 -150
-51 -209 -79 -297 -137 -111 -74 -131 -139 -56 -177 103 -52 277 -82 592 -101
102 -6 249 -15 328 -20 161 -11 850 -4 1072 11 80 5 253 16 385 24 230 14 569
50 742 81 84 14 188 48 198 64 14 23 118 70 195 88 98 23 204 35 525 57 127 9
293 22 370 30 127 13 386 58 483 84 118 32 349 61 927 116 525 50 846 111
1012 192 25 12 44 31 56 56 26 55 7 84 -85 131 -141 71 -482 135 -963 180
-278 26 -339 31 -365 28 -30 -4 -34 -8 75 68 183 128 294 235 374 362 33 53
42 76 43 114 0 39 5 52 27 69 14 11 30 18 36 17 5 -2 7 -1 3 3 -4 4 0 14 8 22
8 8 12 19 9 24 -3 4 6 11 20 15 14 3 30 15 36 27 9 16 13 17 20 6 6 -10 9 -11
10 -1 4 35 20 63 32 55 6 -3 7 -1 3 5 -4 7 2 22 13 34 12 12 21 27 21 33 0 6
13 38 29 71 104 217 164 584 141 867 -18 226 -84 508 -148 633 l-19 37 -7 -42
c-3 -22 -11 -41 -16 -41 -6 0 -10 -6 -10 -14 0 -15 -39 -64 -77 -99 -13 -11
-23 -27 -23 -34 0 -7 -4 -13 -10 -13 -5 0 -10 -7 -10 -15 0 -8 -6 -15 -13 -15
-7 0 -20 -12 -29 -27 -9 -16 -35 -41 -57 -58 -22 -16 -41 -34 -41 -40 0 -5
-20 -23 -45 -38 -25 -16 -48 -34 -53 -41 -4 -7 -29 -23 -55 -37 -27 -13 -53
-31 -58 -41 -5 -10 -16 -18 -23 -18 -7 0 -27 -7 -44 -15 -17 -9 -40 -18 -51
-20 -12 -2 -31 -11 -43 -19 -12 -9 -30 -16 -39 -16 -10 0 -19 -5 -21 -11 -2
-7 -12 -7 -31 0 -46 18 -97 14 -97 -6 -1 -17 -1 -17 -14 0 -7 9 -22 17 -32 17
-17 0 -58 38 -104 96 -9 10 -21 35 -29 54 -7 19 -21 53 -31 75 -10 22 -23 53
-30 70 -7 18 -15 128 -20 280 -10 259 -19 319 -63 414 -30 65 -77 141 -88 141
-5 0 -16 -11 -25 -25z m265 -2062 c-4 -26 4 -33 39 -33 27 0 33 3 22 10 -13 8
-13 10 1 10 21 0 28 -18 22 -53 -7 -34 10 -35 25 -2 10 21 18 25 56 25 35 0
44 -3 40 -14 -4 -12 5 -16 43 -18 29 -2 47 -7 46 -14 -3 -15 52 -26 94 -18
l33 6 0 -76 0 -76 -40 0 c-35 0 -40 -3 -40 -24 0 -19 -6 -24 -37 -29 -42 -7
-83 0 -83 14 0 5 -11 9 -24 9 -17 0 -26 -6 -28 -20 -3 -18 -4 -19 -37 -2 -26
12 -36 13 -39 4 -3 -9 -7 -9 -17 1 -38 33 -47 38 -61 33 -7 -3 -14 -1 -14 4 0
6 9 10 20 10 11 0 20 7 20 15 0 18 -14 19 -40 3 -15 -10 -22 -10 -32 0 -9 9
-7 12 10 12 12 0 22 6 22 14 0 13 -5 13 -78 0 -27 -5 -31 -4 -26 10 5 12 2 15
-10 10 -12 -5 -16 0 -16 20 0 18 -5 26 -17 26 -9 0 -14 2 -11 5 3 3 19 2 37
-1 21 -5 30 -11 27 -20 -8 -22 12 -26 39 -8 27 18 33 34 11 34 -8 0 -16 6 -19
13 -3 9 6 11 34 9 24 -3 39 0 39 7 0 6 -17 11 -40 11 -33 0 -40 3 -40 20 0 11
-7 20 -15 20 -10 0 -15 9 -14 28 0 27 0 27 11 4 15 -30 52 -26 56 6 2 12 10
22 18 22 8 0 13 -3 13 -7z m-129 -49 c0 -28 -5 -35 -25 -40 -16 -4 -25 -13
-25 -25 0 -10 -4 -19 -9 -19 -5 0 -6 12 -2 28 5 17 15 28 29 30 27 4 28 19 2
27 -22 7 -27 31 -7 38 24 8 37 -6 37 -39z m590 -149 c0 -8 -7 -15 -15 -15 -8
0 -15 7 -15 15 0 8 7 15 15 15 8 0 15 -7 15 -15z"/>
<path d="M6252 3730 c-1 -30 12 -48 23 -31 7 12 -4 61 -15 61 -4 0 -7 -13 -8
-30z"/>
<path d="M6510 3690 c0 -5 5 -10 10 -10 6 0 10 5 10 10 0 6 -4 10 -10 10 -5 0
-10 -4 -10 -10z"/>
<path d="M3407 5834 c-37 -74 -33 -83 4 -10 17 32 29 60 27 62 -2 2 -16 -21
-31 -52z"/>
<path d="M2568 5756 c-4 -22 -3 -23 18 -14 19 9 21 14 13 25 -17 19 -26 16
-31 -11z"/>
<path d="M2896 5673 c-13 -162 35 -305 108 -318 67 -13 134 54 151 150 7 39 7
40 -13 21 -74 -66 -174 -42 -221 54 -17 33 -18 62 -7 138 3 17 1 32 -3 32 -5
0 -11 -35 -15 -77z"/>
<path d="M2530 5719 c0 -5 5 -7 10 -4 6 3 10 8 10 11 0 2 -4 4 -10 4 -5 0 -10
-5 -10 -11z"/>
<path d="M2765 5694 c-159 -32 -195 -42 -195 -55 0 -5 -12 -14 -27 -20 -16 -7
-23 -13 -15 -16 7 -3 12 -23 12 -48 0 -52 16 -68 25 -25 12 55 81 110 100 80
4 -6 16 -3 31 9 14 11 41 25 60 31 23 8 34 18 34 31 0 10 -1 18 -2 18 -2 -1
-12 -3 -23 -5z"/>
<path d="M2882 5535 c0 -16 2 -22 5 -12 2 9 2 23 0 30 -3 6 -5 -1 -5 -18z"/>
<path d="M4368 5553 c7 -3 16 -2 19 1 4 3 -2 6 -13 5 -11 0 -14 -3 -6 -6z"/>
<path d="M4360 5510 c-8 -5 -26 -107 -22 -122 1 -5 -1 -8 -6 -8 -8 0 -36 -59
-30 -65 2 -2 26 -7 53 -10 l50 -7 -1 33 c0 18 5 44 12 58 22 46 47 106 50 117
2 12 -88 15 -106 4z"/>
<path d="M7210 5455 c0 -5 5 -17 10 -25 5 -8 10 -10 10 -5 0 6 -5 17 -10 25
-5 8 -10 11 -10 5z"/>
<path d="M2730 5325 c0 -2 6 -8 13 -14 10 -8 14 -7 14 2 0 8 -6 14 -14 14 -7
0 -13 -1 -13 -2z"/>
<path d="M2516 5309 c-46 -11 -93 -38 -101 -57 -5 -13 -3 -13 11 -1 19 16 20
18 -18 -105 -14 -45 -18 -74 -12 -83 17 -26 28 -15 50 49 40 118 56 138 110
138 33 0 59 -14 120 -66 43 -36 54 -41 63 -30 14 17 -2 32 -21 20 -7 -5 -9 -2
-5 9 3 9 -1 21 -11 29 -16 12 -16 11 -2 -7 8 -11 -5 0 -28 24 -23 24 -49 54
-57 67 -16 26 -35 28 -99 13z"/>
<path d="M3167 5253 c-4 -3 -7 -11 -7 -17 0 -6 5 -5 12 2 6 6 9 14 7 17 -3 3
-9 2 -12 -2z"/>
<path d="M2750 5145 c0 -13 64 -125 72 -125 4 0 11 8 16 18 6 13 -3 28 -40 66
-26 26 -48 45 -48 41z"/>
<path d="M2904 5096 c-9 -20 -9 -23 2 -19 8 3 14 14 14 24 0 25 -3 24 -16 -5z"/>
<path d="M4061 5049 c-29 -23 -65 -99 -54 -110 4 -4 28 -9 53 -11 35 -2 45 0
46 12 0 8 3 32 8 53 8 43 1 77 -17 77 -7 -1 -23 -10 -36 -21z"/>
<path d="M4123 4971 c0 -11 5 -18 9 -15 4 3 5 11 1 19 -7 21 -12 19 -10 -4z"/>
<path d="M2235 4870 c-3 -5 -1 -10 5 -10 6 0 8 -4 5 -10 -3 -5 3 -10 13 -10
20 0 36 23 25 34 -10 10 -41 7 -48 -4z"/>
<path d="M2980 4860 c-6 -11 -8 -20 -6 -20 3 0 10 9 16 20 6 11 8 20 6 20 -3
0 -10 -9 -16 -20z"/>
<path d="M2953 4818 c-15 -20 -25 -38 -20 -38 3 0 12 11 21 25 17 26 16 35 -1
13z"/>
<path d="M3665 4820 c3 -5 8 -10 11 -10 2 0 4 5 4 10 0 6 -5 10 -11 10 -5 0
-7 -4 -4 -10z"/>
<path d="M3707 4823 c-3 -5 6 -9 20 -10 19 -1 22 1 12 8 -17 11 -26 11 -32 2z"/>
<path d="M2196 4802 c-2 -4 -1 -14 5 -22 7 -12 9 -10 9 8 0 23 -5 28 -14 14z"/>
<path d="M2685 4776 c-27 -42 -63 -45 -121 -11 -28 17 -52 24 -62 20 -12 -5
-13 -9 -4 -12 6 -3 10 -9 7 -14 -9 -14 56 -49 90 -49 35 0 125 54 125 74 0 27
-15 24 -35 -8z"/>
<path d="M2900 4751 c-6 -12 -7 -21 -1 -21 10 0 24 30 17 37 -2 3 -9 -5 -16
-16z"/>
<path d="M2802 4651 c-45 -38 -96 -75 -112 -83 -17 -7 -30 -16 -30 -19 0 -9
-44 -25 -119 -44 -68 -17 -161 -21 -256 -11 -51 6 -57 5 -40 -6 33 -20 220
-23 296 -4 88 23 199 88 283 168 39 37 68 67 65 68 -3 0 -42 -31 -87 -69z"/>
<path d="M3750 4690 c0 -5 7 -7 15 -4 8 4 15 8 15 10 0 2 -7 4 -15 4 -8 0 -15
-4 -15 -10z"/>
<path d="M3735 4620 c-17 -18 -17 -20 -2 -14 11 4 17 1 17 -9 0 -8 -6 -18 -12
-20 -10 -4 -10 -6 -1 -6 7 -1 17 8 23 19 8 15 8 20 -1 20 -6 0 -9 7 -5 15 7
20 3 19 -19 -5z"/>
<path d="M3706 4575 c-9 -26 -7 -32 5 -12 6 10 9 21 6 23 -2 3 -7 -2 -11 -11z"/>
<path d="M3760 4565 c-8 -9 -8 -15 -2 -15 12 0 26 19 19 26 -2 2 -10 -2 -17
-11z"/>
<path d="M3720 4549 c0 -5 5 -7 10 -4 6 3 10 8 10 11 0 2 -4 4 -10 4 -5 0 -10
-5 -10 -11z"/>
<path d="M2110 4545 c0 -9 77 -44 84 -38 3 4 6 1 6 -5 0 -7 5 -12 10 -12 17 0
11 18 -7 24 -10 3 -21 6 -26 6 -4 0 -21 7 -37 15 -17 9 -30 13 -30 10z"/>
<path d="M3715 4510 c-3 -5 -1 -10 4 -10 6 0 11 5 11 10 0 6 -2 10 -4 10 -3 0
-8 -4 -11 -10z"/>
<path d="M3743 4500 c-11 -16 -10 -18 2 -14 8 4 15 12 15 20 0 19 -3 18 -17
-6z"/>
<path d="M4165 4336 c-71 -67 -77 -90 -22 -79 37 7 87 57 87 88 0 11 5 26 11
32 7 7 7 13 1 17 -6 3 -40 -23 -77 -58z"/>
<path d="M3584 4158 l-19 -23 23 19 c12 11 22 21 22 23 0 8 -8 2 -26 -19z"/>
<path d="M3530 4100 c-9 -6 -10 -10 -3 -10 6 0 15 5 18 10 8 12 4 12 -15 0z"/>
<path d="M3345 3880 c-32 -32 -63 -56 -69 -53 -6 3 -8 2 -3 -2 17 -19 -255
-261 -423 -375 -12 -8 -32 -22 -44 -31 -110 -84 -489 -293 -676 -375 -288
-125 -543 -204 -658 -204 -55 0 -78 17 -134 98 -35 51 -43 54 -21 7 9 -19 20
-35 25 -35 4 0 8 -7 8 -14 0 -8 22 -34 49 -57 46 -40 54 -43 98 -40 58 3 249
52 341 87 225 84 729 353 962 512 231 157 332 243 501 423 118 127 141 157 44
59z"/>
<path d="M3610 3639 c-68 -37 -99 -62 -100 -81 0 -14 30 -9 68 11 38 20 119
97 111 105 -3 3 -38 -13 -79 -35z"/>
<path d="M3114 3245 c-57 -49 -212 -103 -261 -90 -26 6 -31 -11 -10 -37 11
-15 18 -15 67 -3 30 7 83 19 118 26 36 7 58 15 51 19 -14 9 16 56 42 65 9 3
24 14 34 25 28 30 -5 26 -41 -5z"/>
<path d="M3115 3170 c-8 -13 5 -13 25 0 13 8 13 10 -2 10 -9 0 -20 -4 -23 -10z"/>
<path d="M1315 3020 c-7 -11 5 -17 53 -24 17 -2 32 0 32 4 0 5 -9 9 -20 9 -11
1 -29 1 -40 2 -11 0 -18 4 -15 10 4 5 4 9 1 9 -3 0 -8 -5 -11 -10z"/>
<path d="M1460 2990 c-12 -8 -9 -10 12 -10 15 0 30 5 33 10 8 13 -25 13 -45 0z"/>
<path d="M2578 2974 c-4 -3 -42 -7 -85 -9 -43 -2 -91 -7 -108 -11 -16 -4 -47
-8 -67 -8 -21 0 -38 -3 -38 -7 0 -4 -37 -20 -82 -35 -106 -34 -154 -59 -192
-96 l-30 -31 23 -18 c30 -24 48 -24 56 0 3 11 20 30 38 43 98 74 171 94 296
83 47 -4 101 -7 119 -8 17 0 32 -4 32 -8 0 -4 14 -3 30 2 19 7 30 18 30 29 0
11 5 22 10 25 6 3 10 17 10 31 0 17 -6 24 -18 24 -10 0 -21 -3 -24 -6z"/>
<path d="M1635 2710 c11 -5 27 -9 35 -9 9 0 8 4 -5 9 -11 5 -27 9 -35 9 -9 0
-8 -4 5 -9z"/>
<path d="M1778 2673 c6 -2 18 -2 25 0 6 3 1 5 -13 5 -14 0 -19 -2 -12 -5z"/>
<path d="M1840 2660 c24 -8 158 -14 149 -6 -2 2 -42 6 -89 9 -50 3 -75 2 -60
-3z"/>
</g>
</svg>
